<?xml version="1.0" encoding="iso-8859-1"?>
<!-- Generator: Adobe Illustrator 17.0.0, SVG Export Plug-In . SVG Version: 6.00 Build 0)  -->
<!DOCTYPE svg PUBLIC "-//W3C//DTD SVG 1.1//EN" "http://www.w3.org/Graphics/SVG/1.1/DTD/svg11.dtd">
<svg version="1.1" id="Layer_1" xmlns="http://www.w3.org/2000/svg" xmlns:xlink="http://www.w3.org/1999/xlink" x="0px" y="0px"
	 width="512px" height="512px" viewBox="0 0 512 512" style="enable-background:new 0 0 512 512;" xml:space="preserve">
<path id="bg_32_" style="fill:#45B39C;" d="M512,256.001C512,397.381,397.387,512,256.004,512C114.613,512,0,397.381,0,256.001
	C0,114.617,114.613,0,256.004,0C397.387,0,512,114.617,512,256.001z"/>
<path style="fill:#59C6AC;" d="M214.01,254.241c0,9.421-40.468,17.057-90.393,17.057c-49.92,0-90.389-7.636-90.389-17.057
	c0-9.421,40.469-17.056,90.389-17.056C173.542,237.185,214.01,244.82,214.01,254.241z"/>
<ellipse style="fill:#59C6AC;" cx="365.901" cy="360.389" rx="90.392" ry="17.055"/>
<path style="fill:#59C6AC;" d="M171.943,268.777c0,4.887-21.001,8.846-46.902,8.846s-46.902-3.959-46.902-8.846
	c0-4.889,21.001-8.85,46.902-8.85S171.943,263.889,171.943,268.777z"/>
<path style="fill:#59C6AC;" d="M153.75,242.06c0,8.34-20.997,15.099-46.898,15.099c-25.901,0-46.902-6.759-46.902-15.099
	c0-8.345,21.001-15.105,46.902-15.105C132.753,226.955,153.75,233.715,153.75,242.06z"/>
<path style="fill:#59C6AC;" d="M403.406,346.246c0,8.342-21,15.099-46.901,15.099c-25.901,0-46.901-6.757-46.901-15.099
	c0-8.344,21-15.102,46.901-15.102C382.406,331.144,403.406,337.902,403.406,346.246z"/>
<path style="fill:#59C6AC;" d="M379.554,376.223c0,8.34-16.043,15.1-35.831,15.1c-19.786,0-35.826-6.76-35.826-15.1
	c0-8.345,16.04-15.104,35.826-15.104C363.511,361.119,379.554,367.877,379.554,376.223z"/>
<path style="fill:#DBCB35;" d="M260.447,411.584l8.488,43.688c0.73,3.749,4.357,6.199,8.105,5.47l34.691-6.739
	c3.748-0.729,6.195-4.361,5.467-8.107l-8.486-43.686L260.447,411.584z"/>
<rect x="261.198" y="406.785" transform="matrix(0.9816 -0.1907 0.1907 0.9816 -73.544 62.0873)" style="fill:#897B15;" width="49.111" height="12.596"/>
<path style="fill:#FFFFFF;" d="M395.272,165.646c-16.274-83.771-97.383-138.492-181.154-122.22
	C130.342,59.705,75.623,140.81,91.898,224.586c6.785,34.929,24.868,64.775,49.69,86.561l127.857,111.678l0.164-0.033
	c-3.115-3.004-5.384-6.953-6.272-11.525c-2.301-11.833,5.432-23.297,17.268-25.596c11.838-2.301,23.295,5.435,25.594,17.268
	c0.897,4.606,0.256,9.143-1.539,13.115l0.092-0.018l74.171-146.379C395.793,239.068,402.457,202.623,395.272,165.646z"/>
<path style="fill:#DDDDDD;" d="M214.117,43.426c73.526-14.283,146.324,42.054,162.6,125.826
	c7.184,36.978,2.143,73.105-12.039,103.173l-58.127,134.874c-0.035,3.073-0.667,6.051-1.891,8.754l0.092-0.018l74.171-146.379
	c16.87-30.588,23.534-67.033,16.349-104.01C378.997,81.875,297.889,27.154,214.117,43.426z"/>
<path style="fill:#BD3E25;" d="M214.117,43.426c34.152-6.631,75.03,55.902,91.305,139.677c7.185,36.975,8.371,71.897,4.518,99.957
	l-11.681,101.077c3.969,2.335,7.324,5.676,9.655,9.77l40.162-118.254c11.043-29.459,14.199-65.225,7.018-102.196
	C338.818,89.682,275.697,31.466,214.117,43.426z"/>
<path style="fill:#BD3E25;" d="M263.639,390.885l-50.969-93.547c-13.065-24.07-24.139-55.278-30.925-90.207
	c-16.275-83.773-1.784-157.069,32.372-163.704c-61.584,11.963-98.315,89.581-82.04,173.355c6.788,34.93,21.735,65.383,41.298,88.191
	l84.982,98.621C258.977,398.918,260.834,394.549,263.639,390.885z"/>
<g>
</g>
<g>
</g>
<g>
</g>
<g>
</g>
<g>
</g>
<g>
</g>
<g>
</g>
<g>
</g>
<g>
</g>
<g>
</g>
<g>
</g>
<g>
</g>
<g>
</g>
<g>
</g>
<g>
</g>
</svg>
